<svg width="16" height="16" viewBox="0 0 8.4666665 8.4666665" fill="none"
    xmlns="http://www.w3.org/2000/svg">
    <g id="applet-coffee-active">
        <!-- Cup body -->
        <path
            d="m 3.6198947,6.3165951 h 8.7703483 v 6.6753209 a 1.8520833,1.8520833 135 0 1 -1.852083,1.852083 l -5.066182,0 A 1.8520833,1.8520833 45 0 1 3.6198947,12.991916 Z"
            transform="matrix(0.39228595,0,0,0.39228595,0.96862496,0.99590163)"
            fill="#232323" />

        <!-- Handle outline -->
        <path
            d="m 12.390243,12.244141 c 1.27e-4,0 2.55e-4,0 3.82e-4,0 1.328336,-1e-6 2.404297,-0.972959 2.404297,-2.173828 0,-1.2008693 -1.075962,-2.1738281 -2.404297,-2.1738286 -1.27e-4,0 -2.55e-4,0 -3.82e-4,0 z"
            transform="matrix(0.39228595,0,0,0.39228595,0.70125736,0.97919115)"
            fill="none"
            stroke="#232323"
            stroke-width="1.39175" />

        <!-- Steam strokes -->
        <path
            d="M 2.7452894,1.141846 3.0125299,1.6277379 2.7938785,2.1379244 3.0368245,2.3079866 3.1582973,2.8667622"
            fill="none" stroke="#232323" stroke-width="0.26458333" stroke-linecap="round" />
        <path
            d="M 3.760485,1.2192655 4.0277255,1.7051574 3.8090741,2.2153439 4.0520201,2.3854061 4.1734929,2.9441817"
            fill="none" stroke="#232323" stroke-width="0.264583" stroke-linecap="round" />
        <path
            d="M 4.6973453,1.2435601 4.9645858,1.729452 4.7459344,2.2396385 4.9888804,2.4097007 5.1103532,2.9684763"
            fill="none" stroke="#232323" stroke-width="0.264583" stroke-linecap="round" />
    </g>
</svg>